<svg width="30" height="30" viewBox="0 0 30 30" fill="none" xmlns="http://www.w3.org/2000/svg">
<path d="M16.9028 14.7527L16.1941 14.357L16.8103 13.8242C17.5344 13.2156 18.7361 11.8306 18.7361 9.44891C18.7359 5.79641 15.8703 3.4375 11.4411 3.4375H5.81766C4.49844 3.48219 3.44922 4.54578 3.4375 5.84969V26.5472H11.5413C16.4713 26.5472 19.6452 23.8992 19.6452 19.79C19.6452 17.5834 18.6206 15.6811 16.8873 14.7298M11.8725 22.6588H7.94391V18.0172C7.94391 17.0281 8.32906 16.4953 9.19172 16.3888H11.888C12.3114 16.3537 12.7374 16.4106 13.1368 16.5555C13.5362 16.7004 13.8996 16.9299 14.202 17.2283C14.502 17.5243 14.7332 17.8828 14.8791 18.2782C15.025 18.6736 15.0821 19.0963 15.0462 19.5163C15.0462 21.4947 13.8369 22.6741 11.888 22.6741L11.8725 22.6588ZM7.93609 10.1109V8.89344C7.93609 7.82812 8.39828 7.31062 9.39984 7.24969H11.418C13.1436 7.24969 14.1912 8.26953 14.1912 9.98922C14.1912 11.2828 13.4825 12.8047 11.495 12.8047H7.95156L7.93609 10.1109Z" stroke="url(#paint0_linear_1_2)" stroke-width="1.875" stroke-linejoin="round"/>
<path d="M23.7406 25.6058C24.7593 25.6058 25.5852 24.7868 25.5852 23.7766C25.5852 22.7663 24.7593 21.9473 23.7406 21.9473C22.7219 21.9473 21.8961 22.7663 21.8961 23.7766C21.8961 24.7868 22.7219 25.6058 23.7406 25.6058Z" fill="white" stroke="white" stroke-width="1.25" stroke-linejoin="round"/>
<defs>
<linearGradient id="paint0_linear_1_2" x1="2.5" y1="15" x2="27.5" y2="15" gradientUnits="userSpaceOnUse">
<stop stop-color="white"/>
</linearGradient>
</defs>
</svg>
