<svg width="20" height="20" viewBox="0 0 20 20" fill="none" xmlns="http://www.w3.org/2000/svg">
<path d="M7.00152 16.6156L3.73579 16.6122V12.5886C3.73579 11.7289 4.05943 11.2815 4.77341 11.1793H7.00154C8.59051 11.1793 9.61838 12.2116 9.61838 13.8823C9.61838 15.5984 8.61651 16.6139 7.00152 16.6156ZM3.73579 5.76309V4.70399C3.73579 3.77727 4.11635 3.33653 4.95068 3.27955H6.62259C8.05542 3.27955 8.91415 4.1627 8.91415 5.64244C8.91415 6.76858 8.32541 8.08408 6.67464 8.08408H3.73579V5.76309ZM11.1715 9.77832L10.5812 9.43646L11.0968 8.98231C11.6969 8.45107 12.702 7.25623 12.702 5.19499C12.702 2.03779 10.3258 0.00168281 6.64861 0.00168281H2.45257V0H1.97441C0.884746 0.0418995 0.0113829 0.955218 0 2.08472V19.999H6.73156C10.8186 19.999 13.4566 17.7065 13.4566 14.1555C13.4566 12.2434 12.6044 10.6095 11.1715 9.77832Z" fill="black"/>
<path d="M15.2097 17.5244C15.2097 16.1559 16.2809 15.0487 17.6007 15.0487C18.9238 15.0487 20 16.1559 20 17.5244C20 18.8911 18.9238 20 17.6006 20C16.2809 20 15.2097 18.8911 15.2097 17.5244Z" fill="black"/>
</svg>
