<svg width="35" height="25" viewBox="0 0 35 25" fill="none" xmlns="http://www.w3.org/2000/svg">
<path d="M8.75854 9.98595C6.3332 9.98595 4.37244 12.2267 4.37244 14.9906C4.37244 17.7545 6.3332 19.9953 8.75171 19.9953C11.1702 19.9953 13.131 17.7545 13.131 14.9906C13.1378 12.2267 11.177 9.98595 8.75854 9.98595ZM8.75854 18.5743C7.03006 18.5743 5.62268 16.9738 5.62268 14.9906C5.62268 13.0075 7.02323 11.4069 8.75854 11.4069C10.4938 11.4069 11.8876 13.0153 11.8876 14.9906C11.8876 16.966 10.487 18.5743 8.75854 18.5743Z" fill="black"/>
<path d="M8.77222 17.4735C9.97586 17.4735 10.9516 16.3584 10.9516 14.9828C10.9516 13.6073 9.97586 12.4922 8.77222 12.4922C7.56858 12.4922 6.59283 13.6073 6.59283 14.9828C6.59283 16.3584 7.56858 17.4735 8.77222 17.4735Z" fill="black"/>
<path d="M26.2483 9.98595C23.8298 9.98595 21.869 12.2267 21.869 14.9906C21.869 17.7545 23.8298 19.9953 26.2483 19.9953C28.6668 19.9953 30.6276 17.7545 30.6276 14.9906C30.6276 12.2267 28.6668 9.98595 26.2483 9.98595ZM26.2483 18.5743C24.5198 18.5743 23.1124 16.9738 23.1124 14.9906C23.1124 13.0075 24.513 11.4069 26.2483 11.4069C27.9836 11.4069 29.3773 13.0153 29.3773 14.9906C29.3773 16.966 27.9768 18.5743 26.2483 18.5743Z" fill="black"/>
<path d="M26.262 17.4735C27.4656 17.4735 28.4414 16.3584 28.4414 14.9828C28.4414 13.6073 27.4656 12.4922 26.262 12.4922C25.0583 12.4922 24.0826 13.6073 24.0826 14.9828C24.0826 16.3584 25.0583 17.4735 26.262 17.4735Z" fill="black"/>
<path d="M32.4107 7.90131L34.9863 4.98126H29.7667C26.8427 2.26421 21.9852 0 17.4829 0C12.9738 0 8.15733 2.26421 5.23326 4.98126H0L2.57564 7.90131C0.983799 9.71268 0 12.2189 0 14.9906C0 20.5184 3.92153 25 8.75854 25C10.9789 25 13.008 24.0553 14.552 22.4938L17.5171 24.9844L20.448 22.5484L20.4138 22.4547C21.9647 24.0319 24.0006 24.9922 26.2415 24.9922C31.0785 24.9922 35 20.5106 35 14.9828C34.9932 12.2189 34.0025 9.71268 32.4107 7.90131ZM25.1415 5.05934C20.9945 5.65272 17.7425 9.55653 17.4966 14.3894C17.2438 9.54872 13.985 5.6371 9.82432 5.05934C11.9149 3.34166 14.5793 2.49844 17.4829 2.49844C20.3865 2.49844 23.0509 3.34166 25.1415 5.05934ZM8.75854 22.5016C5.12395 22.5016 2.18622 19.1365 2.18622 14.9906C2.18622 10.8448 5.13078 7.4797 8.75854 7.4797C12.3863 7.4797 15.3309 10.8448 15.3309 14.9906C15.324 19.1365 12.3863 22.5016 8.75854 22.5016ZM26.2483 22.5016C22.6205 22.5016 19.676 19.1365 19.676 14.9906C19.676 10.8448 22.6205 7.4797 26.2483 7.4797C29.876 7.4797 32.8206 10.8448 32.8206 14.9906C32.8138 19.1365 29.876 22.5016 26.2483 22.5016Z" fill="black"/>
</svg>
