<svg xmlns="http://www.w3.org/2000/svg" xml:space="preserve" width="50" height="75" style="shape-rendering:geometricPrecision;text-rendering:geometricPrecision;image-rendering:optimizeQuality;fill-rule:evenodd;clip-rule:evenodd" viewBox="0 0 206.616 227.612"><path d="m24.935 30.833 4.73-3.19 8.713 12.915-4.73 3.191-8.713-12.916zm124.947 141.762.789-.303-.425.303-.788.304.424-.304zm5.095-5.095c.067-.067.212.211.202.203-.01-.009-.27-.135-.202-.203zm-14.191-.363.364-.364v.727l-.789-.06.425-.303zm10.916-1.456.782-.346-.418.71-.783.345.419-.71zm-9.46.728-.783.345.418-.71.728-.363.419-.346-.42.71-.363.364zm-.729-1.82c.068-.067.213.211.203.203-.01-.009-.27-.136-.203-.203zm14.191.364-.364.364-.363.364-.364.364-.364.364-.364.364-.364.727-.728.364v.728h-.727l-.364.364-.364.364-.364.364-.364.364-.364.364-.727.364-.364.364-.419.345.419-.71.364-.727.363-.364.728-.364.364-.364.364-.364.364-.364.364-.364.363-.364.364-.363.364-.364.364-.364.364-.364.728-.364v-.728h.727l.364-.364.364-.364.419-.346-.419.71-.364.364zm-2.037-1.092v.728-.728zm-10.334-.727.728-.364v.727h-.728l-.419.346.419-.71zm1.819-1.093.782-.345-.418.71-1.092.364v-.729h.728zm10.916.365-.728.364v-.729h.728l.788-.303-.424.303-.364.365zm3.056-1.456v.728-.728zm5.677.364-.364.727-.364.365-.364.364v.727h-.727l-.364.364-.364.364-.364.364-.783.346.419-.71.364-.728v-.727h.728l.364-.729.363-.727.364-.364.728-.364.364-.364.728-.364-.364.728-.364.728zm1.091-2.183-.363.727.363-.727zm-22.195-.365.415-.354-.415 1.082-.416.354.416-1.082zm22.195.365.061-.425.303.425h-.364zm-67.315-2.912h1.092l.364.364h1.455l.364.364.364.728h.364l.78-.354-.416 1.081h-.364l-1.455-.364-.728-.363-.728-.364-.364-.364-.728-.364v-.364zm66.224.728-.728.364-.728.364-.418.346.418-.71.364-.364.364-.364.728-.364.364-.364.727-.364.364-.364v1.092h-.727v.728h-.728zm-15.282-1.092c-.642.39-.379.574-.728-.364h1.091l.789-.303-.425.303-.727.364zm-1.092-2.547-.364.364-.788.303.424-.303.364-.364.364-.364.364-.364.782-.346-.418.71-.728.364zm-95.696-1.092c0-.629 1.466-.364 2.183-.364l.364-.364.006-1.141 1.45.413.363.364.364.364h.728l.363.364h1.456c1.129 0 1.668-.253 2.183.364l.364.728.364 1.091c-1.607 0-4.083.278-5.094-.363-1.13 0-2.031.253-2.547-.364-1.129 0-1.668.253-2.184-.364l-.782-.019.419-.709zm42.936-.728.727.364 1.456.364.727.364.728.364 1.092.364 1.092.364.363.363 1.092.364.728.364.727.364.354 1.507-1.081-.415-1.092-.364-.364-.364-.727-.364-.728-.364-.728-.364-.728-.364-1.091-.363-.364-.364-.728-.364-.364-.364-.364-.364-.727-.364h-.728l.018-.783.71.42zm-7.278-2.183h.728l-.06.788-.304-.424h-.728l.061-.789.303.425zm-34.203-.364v-.728l1.14.004-.412 1.815h-.364l-.364-.363v-.728zm66.951-.364.364.364.728.364.364.364.357.777-1.449-.414-1.092-.363-.363-.364-.364-.364-.36-.776 1.815.412zm-57.854 0v-.364.728l-.419.345.419-.71zm-19.285 0 1.455.364 1.092.364h.728l-.019 1.146-.709-.419-1.092-.363-1.091-.364-.728-.364-.728-.364-.357-.414 1.45.414zm57.49-1.092.364-.364.728-.364v.728l.728.364.728.364.363.364.364.364h2.183v.728h-.727l-1.092.363c0 .628-1.73.542-2.183 0l-.364-.727-.728-.364-.364-.728v-.728zm-36.386 1.456-.364.728v.727h.364l.364-.364h.728l.364 1.092v.728l-.364.364-1.456.364v-.728l-.364-.364-.363-.728v-1.091l.363-.728.364-.728.364-.364h.364v.364l-.364.728zm-18.557-1.82h.728v.728h-.728v-.728zm53.488-.364.018-.782.71.418v.728h-.728v-.364zm-54.216 0 .364-.364-.06 1.152-.304-.424v-.364zm53.27-.727v.727-.727zm-50.359.363.364.364.364.364.364.728.354.415-1.082-.415-.364-.728-.364-.728-.345-.418.71.418zm-5.458-.363.364.363h-.728l.061-.788.303.425zm31.656.727v.728H74.2l-.364.364-.364.364-.364.364-.728.364-.727.364-.728.364-.728.363-1.091.364-.728.364h-1.092v-1.819h1.092l.364-.364.364-1.092.363-.728.364-1.455.364-.365v1.456l.364 1.82h-.364v.364h.364v-.364h.364l.364-.728h1.819l.364-.364.364-.364.364-.727.364-.365.727-.363.416-.355-.416 1.083-.364.727zm-30.2-1.82-.364-.363h.728l-.061.788-.303-.425zm53.488 0-.364 1.093-.364.363v-.363h-.728v.363h.728v.364l1.091.364h.728l-.01.78-1.081-.416h-1.092v.364l.728.364 1.455.364 1.092.364h.728v.728H98.94l-1.091-.364-.728-.364-1.092-.364-1.091-.364-1.092-.364-.727-.364-.354-.78 1.081.416 1.456.364h1.455v-.364l-1.091-.364-.728-.364-1.092-.363-1.455-.365-.728-.363-.357-.414 1.449.414 1.455.363h1.092v.365h.727v-.365h-.727v-.363l-.346-.783.71.418h.363l.728-.363 1.092-.364.364-.364v-.728l1.505.007-.414 1.449-1.091.363zm-29.11 0-.363.365-.364 1.091v1.092h-.728v-1.092l-.364-1.091h-.364l-.363.363-.364.365-.78.353.416-1.081v-.728h.728l.363-.364.364-.364.728-.364 1.869-.357-.414 1.449-.363.363zm33.112-.363-.364.728-.727.363v-1.091l.364-.728.363-1.092h1.092v1.456h-.364l-.364.364zm-42.936-1.82.364.728.364.728.354 1.507-1.082-.415-.363-.365v-.727l-.346-1.874.71.418zm-18.557 1.82h-.364l-.363-.728h.727l.018-.783.71.419.364.728h-.728l-.364.364zm5.822-1.456c.068-.068.213.211.203.203-.01-.009-.27-.135-.203-.203zm2.183-.364c0-.642 1.376-.531 1.82 0l.363.364-2.965-.164.782-.2zm11.644-.728.364.364.363.728.365 1.456h-.728v-.728l-.364-.728-.364-.728-.346-.782.71.418zm-5.822-.364h.364l.364.364.346.783-.71-.419-.783-.018.42-.71zm7.277-.364h.364v.728l.364.728.364.728.346 1.146-.71-.418-.364-.728-.364-.728-.363-.728-.346-1.146.71.418zm-5.094.728.364.364.364.728.345.782-.709-.418-.364-.728-.364-.728-.345-.418.71.418zm53.124 0c-.641 0-.531-1.375 0-1.82v-.727h.728c0 1.44.211 1.277-.364 2.183l-.06.789-.304-.425zm-1.819-1.092h.728l.364.728h-1.092v-.728zm31.656-.363v.727l-.364.364.164-1.874.2.783zm-93.149-.364.364.364v.727h-1.092l.019-1.51.71.419zm64.404 0v.727-.727zm-12.372 0v-.728h1.092c.673 0 .503 1.036 0 1.455l-.364.728v.728l-.782-.018.419-.71v-1.091l-.79-.061.425-.303zm-47.666.364-.363-.364h.727v1.455h-.364v-1.091zm50.214-.364-.364.364v-1.092l.782.018-.418.71zm13.099-.728.364-.364-.061 1.152-.303-.424v-.364zm3.274-1.82h.364v1.092h-.364v-1.092zm-1.091.728V140.207h-.728v-2.548h.728v.728zm-54.58 0 .364.364.364.728.364.364h.364v.728l.363.727.365.728.363.728.364 1.092c.673 0 .503 1.036 0 1.456l-.364 1.455-.363.364-.365.364-.363.364v.364l-.782-.019.418-.709.364-.728.363-.727.365-.365v-2.183l-.365-.728-.363-.728-.364-.364-.364-.364h-.364v-.727l-.364-.364-.363-.728-.365-.728-.363-1.092h1.091v.728zm57.127 1.092-.06.788-.304-.424v-2.548l1.143.01-.415 1.082-.364 1.092zm-24.015.728c0 1.129.253 1.667-.364 2.183l-.364.364v1.82l-1.87-.01.415-1.082.364-.364.363-1.456.364-.728.364-.727.364-.728v-2.184h.728v.728h.364v-1.092h1.091v1.82h.364l.728-.364v1.092l-.364 1.092-.364 1.091-.779.355.415-1.083v-1.455h-.728l-.363-1.092h-.364l-.364 1.82zm-26.926-2.912.364.364.364.728h.364v1.092l.364.728.363 1.455h-.727v-.728l-.364-1.091-.364-.364-.364-1.092-.303-1.516.303.424zm-5.094.728.364.728.364.364.364.728.364.728.303.788-.303-.425-.364-.727-.364-.364h-.364v-.728l-.364-.728-.303-.788.303.424zm91.33.728-.364.728-.364 1.455-.364 1.456-.728.364c0-1.448-.225-1.619.364-2.547l.364-1.456.364-.364.364-1.092 1.143-.354-.415 1.082-.364.728zm-31.293 0-.06.788-.303-.424v-.364c0-1.129-.254-1.668.363-2.183v-.728h.728c0 1.44.211 1.277-.363 2.183l-.365.728zm-14.554 0h-.364v2.183h-.364l-.364.728-.364.364v-1.455h-.363v1.091l-1.142-.006.414-1.45.364-.727.364-.728.363-1.092.364-.364v.728h.364l.364-1.82.364-.363v1.455h.364l.364-1.82h.364c.619 0 .546 2.092 0 2.548v1.456h-1.092v-.728zm-7.277-2.183.06-.79.304.425v1.092l-.78.354.416-1.081zm11.643 0c.068-.068.213.21.203.202-.01-.008-.27-.135-.203-.202zm-12.735-1.456.364-.728v2.547l-.775-.004.411-1.815zm-15.282 2.547v1.092l.364.364.363.364h.728l.364-.728.364-1.456.415-.354-.415 1.082v.364l.364.364h-.364v1.456h-.364v.727h.364v-.727h.364v-1.456l.727.364h.364l.364-.364.364-.364v1.82h.364c0-1.14-.253-2.396.364-2.912l.364-1.82.363-.363v.728h.728l.728-.364v1.82h.364v-.728h.728c0 1.44.21 1.276-.364 2.183l-.364 1.82-.364.727v.728l.364 1.092h-.728l-.364.728H90.21l-1.092-.364-.364-1.092h.364l1.092-.364.363-.728v-1.091h-.363v.727h-1.456v1.456h-.364l-.364.364-1.455.364v.364h1.092v.728l.363.364.728.363.364 1.092h-.728l-.364.364v.728l.364.364.364.364.728.364.354.78-1.082-.416-.728-.364-.727-.364-.364-.364c-1.13 0-2.031.254-2.547-.364l-.728-.364h-.728c-.906.575-.743.364-2.234.354l.415-1.082.364-.364.364-.363.364-1.092.364-.728.363-.364.364-.728.364-1.456.364-1.455.364-.728c0-1.14-.253-2.396.364-2.911v-.728l.775.004-.411 1.815-.364.728zm-21.468-1.091.425.06-.425.303v-.363zm66.587-1.092.414-.358-.414 1.45-.412.723.412-1.815zm-5.094 1.82-.412.359.412-1.815h.364l.363.728h-.363l-.364.727zm-4.367.727-.363.364c0-1.157-.253-2.76.363-3.275v-1.456h.728c0 1.463.232 1.972-.363 2.912l-.365 1.455zm-34.203-1.455-.364.363v-2.183l.776.004-.412 1.816zm-22.923 0-.424-.061.424-.304v.365zm62.948 0-.06.788-.303-.425-.365-.363h.365l.363-1.456.061-.789.303.425v1.092l-.364.728zm-15.282-2.548h.364v1.82h-.364v-1.82zm-5.094 2.548c0 1.128.253 1.667-.364 2.183l-.364 1.092v.728l-.779-.01.415-1.082c0-1.13-.253-1.668.364-2.184l.364-1.455.06-.789.304.425v1.092zm10.188-2.912.364 1.82h-1.092l.019-2.239.71.42zm-59.673.728h.363l.364.364.364.364.364.728.364.728.364.363.345.783-.709-.419-.728-.364-.364-.363-.364-.365-.363-.727v-1.092zm-4.003.364.364.364H51.64l.018-.782.71.418zm-2.547 0v.364l-.728.364.018-1.146.71.418zm69.28-.728v.728-.728zm-4.876.364.06-3.7.304.425c.595 0 .556 4.266 0 4.73l-.061.789-.303-.425v-1.819zm-56.035 0 .425.06-.425.304v-.364zm65.495-1.82.364 1.82h-1.092l.02-2.238.708.418zm-6.913 1.456c.068-.067.212.211.203.203-.01-.009-.27-.135-.203-.203zm-58.582.364-.364-.364.364.364zm30.2.728v1.091h-.727l.018-6.24.71.418.363 1.456c.642 0 .532 1.375 0 1.82l-.364 1.455zm-29.472-1.82.363.364.346.419-.71-.419-.302-.788.303.424zm-1.82-.364.364.364.364.728-.364-.364h-.728l.061-1.152.303.424zm64.768 0 .06-1.152.304.424c.627 0 .541 1.731 0 2.184l-.364.364V132.928zm-27.29 4.367h-.364l-.364.364v-6.187h.728v5.823zm-9.824-4.003v-.364l.06-.788.304.424v.364l-.061.789-.303-.425zm-10.188.728v.364l-.061.788-.303-.424h-1.456v-.728l-.364-1.092-.363-.364-.364-1.455.364.363h1.455l1.092-.363v2.911zm-6.186-2.183.364.363.364.364.364.364.363 1.092.364.364.364.364.364 1.092.364.728.364 1.091.364.728.363 1.092.364 1.82h.364l.364-1.82 1.092-.364c0 1.448.225 1.619-.364 2.547 0 1.13.253 1.668-.364 2.184l-.364.728-.364.728v.727h-.728l-.363.364v-4.367c-.629 0-.364-1.466-.364-2.183l-.364-.728-.364-1.092-.364-.728-.364-.727h-.364v-.728h-.363v-1.092l-.364-.728-.364-.728-.364-.728-.364-.364-.346-.782.71.419zm1.455 4.73v1.092l.364.728.364 1.092.304 1.516-.304-.424-.364-.728-.364-.728-.363-.728h-.364v-1.092l-.364-.364-.364-.728-.364-1.091-.364-1.092-.345-.418.71.418.363.728.364.728.364.364h.364v.728h.363zm56.4-6.55h.727v1.455h-.728v-1.455zm-17.466-1.092h.364l.364 1.456c.628 0 .363 1.466.303 2.244l-.303-.425-.364-.363-.364-.365c-.619 0-.547-2.09 0-2.547zm-22.924 1.092.364-.364-.163 2.238-.2-.782v-1.092zm64.404-.728h.364v1.456h-.364v-1.456zm-1.455.364h.728v1.092h-.728v-1.092zm-16.374 1.82v.727l-.364 1.456-.364 1.456v.728h-.727c0-1.44-.212-1.277.364-2.184 0-1.14-.254-2.396.363-2.911l.061-.789.303.425h.364l.364-.364.415-.354-.415 1.082-.364.727zm-61.129-1.092.364.728-.364-.364-.303-.789.303.425zm56.4-.364.06-.788.303.424c.6 0 .554 3.54 0 4.003l-.364.728v-4.367zm-71.318 0 .363.364.364.364.304.788-.304-.424-.364-.364-.363-.364-.304-.789.304.425zm-8.37 0c.068-.068.213.21.203.203-.01-.009-.27-.136-.202-.203zm89.875-1.82h.728v1.82h-.728v-1.82zm-45.483.728.346 1.147-.71-.419-.345-1.146.709.418zm30.564 0v.364l-.363.364v-1.82h.363v1.092zm12.736-2.183c.628 0 .364 1.466.303 2.244l-.303-.425c-.629 0-.364-1.466-.304-2.244l.304.425zm-4.367.364h.364v1.091h-.364v-1.091zm-2.547-.364h1.092v2.911h-.728v-.728l-.364-.728c-.673 0-.502-1.035 0-1.455zm-16.01 1.091v-.727h.728c0 1.44.211 1.277-.364 2.183v.364l.2 1.874-.2-.782c-.65 0-.364-1.911-.364-2.548v-.364zm-61.492 0 1.09.364.365.364.727.364.365.728.357.414-1.449-.414-.364-.364-.364-.364-.364-.364-.363-.364-.304-.788.304.424zm82.96-.364c.068-.067.213.212.203.203-.01-.008-.27-.135-.203-.203zm-6.549-1.455.303 1.88-.303-.425-.303-1.88.303.425zm-6.914.728c.662 0 .364 3.912.304 4.791l-.304-.424c-.658 0-.364-2.912-.364-3.64l-.363-1.819h.727v1.092zm-37.114-.728.364.364.364 1.091.364 1.456.364 1.82h-.728v-1.092l-.364-1.456-.364-.728-.303-1.88.303.425zm-24.742 1.455.727.364.364.364.728.364.364.364.364.364.727.364.364.364.364.364.364.364.303.788-.303-.424-.728-.364-.364-.364-.363-.364-.728-.364-.364-.364-.364-.364-.364-.364-.364-.364-.727-.364-.364-.364-.346-.418.71.418zm104.065-1.091h.364l.727.364.364.364.364.364.364.363.728.364.363.364.364.364.364.364.364.364.364.364.364.728.364.727.363.728.364.728.364.364.364.364.364.728.364.728.364.364.363.727.364.728.364.728.364 1.092.364 1.092v.728h-2.183v1.091c.673 0 .502 1.036 0 1.456l-.364.728-.364.728-.364.728-.364.727-.364 1.092-.363 1.092-.364.364-.728.364-.364.728-.364.727-.364.364-.363.364v.728h-.728v.728h-1.092l-.364.728v.727h-1.091l-.364.364-.728.364-.364.364-1.091.364-.364.364-.728.364-.364.364-1.455.364-.728.364-.364.364v.363l.364.728.364.365 2.971.06-.424.303-1.092.364-.727.364-1.092.364-.728.364-1.819.364v.364l.364.363v.365l-.728.364-.728.364h-1.091v-.728l-.364-.365-.364-.363h-2.547c0 .673-1.036.502-1.455 0l-.364-.364h.727l.364-.364.728-.364.728-.364 1.091-.364.364-.364.364-1.092.364-.364v-.363l-.364-.364v-.364l.364-.364 1.091-.364.728-.364.364-.364v-.364l-.364-.364-.788-.06.424-.304 1.092-.364v-.363l-.364-.364v-1.092l-.364-.364-.364-.728h.728l.728-.364.728-.364v-.364l-1.88-.06.424-.303.364-.365.728-.363.364-.364 1.091-.364.728-.364.728-.364.727-.364.364-.364.364-.364.728-.364.364-.364.727-.363.364-.365.364-.363.364-.364.364-.364.364-.364.364-.364.364-.728.363-.364.364-.364.364-.728.364-.727.364-.364.364-1.092.364-.728.363-1.455c0-1.13-.253-1.668.364-2.184v-.364l-.364-.364c-.65 0-.363-1.911-.363-2.547l-.364-.728-.364-.364-.364-.728-.364-.728-.364-.364-.364-.728-.363-.363-.364-.364v-.364zm-112.07-.364.364.364h-.728l.06-.789.304.425zm65.495-1.456.364.364.364.364v.728l-.728.364v-1.456l-.303-.789.303.425zm-1.455-2.911.364.728v.364h-.364l-.303-1.517.303.425zm9.824 0 .364.364h-1.091l.018-.783.71.419zm-69.862-4.731.364-.364h.364v1.092h-.728v-.728zm79.686-4.367c1.14 0 2.396-.253 2.911.364l1.456.364 1.82.363.727.365 1.456.364 1.091.364.728.363 1.091.364 1.092.364.727.364.783.018-.418.71c0 .673-1.036.503-1.456 0l-1.091-.364-1.092-.364-.728-.364-.727-.364-1.456-.364-1.456-.363-1.455-.364c-1.129 0-1.668.253-2.183-.364l-.728-.365-.728-.363c-1.128 0-1.667.253-2.183-.364l-.364-.728c1.44 0 1.277-.211 2.183.364zm-4.002-.728h.728l-.019.783-.709-.42-.303-.787.303.424zm-3.275-.728 1.82.364v.364l-.005 1.14-1.815-.412-1.091-.364-.364-.364-.728-.364-.364-.728c1.448 0 1.619-.225 2.547.364zm-35.295-.364-1.455.364-1.092.364c0 .62-2.09.547-2.547 0v-.364l.364-.364.728-.364.01-.779 1.082.415h.727c.95-.603 2.477-.364 4.003-.364v.728h-.728l-1.092.364zm11.644-.946h-.727.727zm-4.366-.146-.728.364c-.95.604-2.476.364-4.003.364v-.728h.728l.728-.363.728-.364.363-.364 1.092-.364.728-.364h.727c.674 0 .503 1.036 0 1.456l-.363.363zm-16.374-.363-.364.363v1.092l.364.364h.363l.365-.364.727-.364v-.728h.728l1.152-.303-.424.303-.364.728-.364.728v.728h-1.82l-1.09-.364-.365-.728-.364-.728-.363-.364h-2.184v-.727h.728c0-.655 2.244-.364 2.91-.364v-.728l1.147.018-.418.71-.364.728zM43.998 95.08l-.363.364-.364.728-.364.363-.364.364-.364.364-.364.728-.364.364-.363.364-.365.728-.363.364-.364.364-.364.364-.364.728-.364.363-.363.364-.365.728-.363.728-.364.728-.364.364-.364.728-.364.727-.363.728-.365.728-.363 1.092-.364 1.091-.364.728-.364 1.092-.364.728c0 1.129.253 1.668-.363 2.184 0 1.156.252 2.76-.365 3.275 0 1.156.253 2.76-.363 3.275v4.367c.654 0 .363 2.245.363 2.911l.365 1.092v1.456h-.728l-.364.727-.364.728-.364.728-.364 1.456v3.275l.364 1.092.364.728c.673 0 .502 1.036 0 1.455v.364l.364 1.092.364.728.363.364.365.364.363.364.364.363.728.364.364.364.363.364.365.364.363.364.364 1.456v1.092c0 1.129.253 1.668-.364 2.183l-.363 1.456v.728l-.365 1.091-.363 1.82v1.092c.654 0 .363 2.244.363 2.91l.365 1.093.363.364h.364v1.092l.364.363h.364v-.727l-.364-.728h-.364v-1.456l-.364-1.091c-.604 0-.552-3.178 0-3.64l.364-1.456.364-.727.364-.364.364-.728.363-.728.365-1.092.363-.364h.364l.364.728.364.728.364 1.456.363.728.365.727.363 1.456.364 1.82.364 1.82.364 1.09.364 1.093.364.363.364.365.363.727.364.364.364.364.364.728.364.364.364.728.364.364.364.364.363.364.364.363.364.364.728.364.364.364.727.364.364.364.728.364h.728v-.364l-.364-.364-.364-.364-.364-.364-.728-.364-.363-.364-.364-.363-.364-.364-.364-.364-.364-.364-.364-.728-.364-.364-.363-.364-.364-.364-.364-.364-.364-.364-.364-1.092-.364-.363-.364-1.092-.364-1.092-.363-.363-.364-1.093-.364-1.455-.364-1.82-.364-.728-.364-1.819-.346-1.51.71.418.728.364.364.364.727.364.728.364.728.364.728.364 1.091.364.364.363.364.364 1.82.364.363.364.364.364.364.728.364.364.364.364.363.364.728.364.364.363.364.364.364.364.364.364 1.091.364.364.364.364.364.364.364.364.364.363.364.364.364.364.363.728.365.364.364.364.363.364.364.727.364.364.364.728.364.364.364.727.364.728.364.728.364.728.364.728.364.363.363h.728v.364l1.091.364.728.364.364.364.728.364h1.455v-.364l-.363-.364-.728-.364-1.092-.364-.727-.364-1.092-.363h-.364v-.364l-.728-.364-.363-.364-1.092-.364-.728-.364-.364-.364-.363-.364-.728-.364-.364-.364-.728-.364-.364-.363-.728-.364-.363-.365-.364-.363-.364-.364-.364-.364-.364-.364-.728-.364-.364-.364-.363-.728-.728-.364-.364-.364-.364-.364-.364-.363-.364-.364-.363-.364-.364-1.456h2.91c0-.663 4.913-.364 5.822-.364l.728-.364h.728l.364.364.364.364.363.364.365.364.363.728.364.364.364.364.364.363.364.364.363.728.365.364.363.364.364.364.364.364.364.364.727.364.365.364.363.363.728.365.728.364.728.363.727.364.728.364.728.364.728.364.727.364 1.455.364.728.364c1.13 0 1.668-.253 2.184.364 1.129 0 2.03-.254 2.547.364l1.819.364h1.455c0-.613 2.452-.55 2.911 0 1.157 0 2.76-.253 3.275.363l1.455.364c1.13 0 1.668-.253 2.184.364h.727l.728.364 1.092.364h1.091v-.728l-.364-.364-1.091-.364H97.85v-.363l-1.091-.364-1.82-.364-1.091-.364c-1.391 0-4.777.452-5.458-.364-1.129 0-1.668.253-2.183-.364H84.75c-1.14 0-2.396.253-2.91-.364l-1.456-.364-.728-.364-1.091-.364-1.092-.364-.728-.363-.727-.364-.365-.365-1.091-.363-.364-.364-.364-.364-.727-.364-.364-.364-.728-.364-.728-.364-.364-.364-.363-.364-.365-.364-.727-.364-.364-.363-.364-.364-.364-.364-.363-.364-.365-.364-.363-.728-.364-.364-.364-.728v-.364l.364-.363 1.455-.364.364-.364 1.092-.364.363-.364.728-.364.364-.364.728-.364v-.728h.728v-.727h.727l.364-.365.364-.363.364-.365.364-.363v-.728h.727l.365-.728.363-.728.364-.728.364-.728.364-.727.364-1.456.363-1.456v-5.458l-.363-1.456-.364-.728-.364-.728-.364-.727-.364-.728-.363-.364-.365-.728-.363-.364-.364-.364h-.728l-.06.789-.304-.425-.364-.364v-.728l.728-.364v.728h.364v-1.82l-.364-.364-.364-.727-.364-.364-.363-.364v-1.092c0-.627 1.73-.542 2.183 0h.728l.363-.364.019-2.602.709.419.364.364.364.364.363.364.728.363.364.364.364.364.364.364.727.364.365.364.363.364v.728c0 .673-1.035.502-1.455 0l-.728-.364-1.092-.364h-1.455v.364l.364.364.728.364h.728l-.019 1.146-.71-.418h-.727v.727l.364.364.727.364.365.364v1.092h.727v.728l.364.727.364.365.364.363h.728v.728l.363 1.82c.659 0 .364 2.912.364 3.639.608 0 .552 2.815 0 3.275l-.364.728-.363.728-.365.728-.363.727-.364.728-.364.728-.364.728v.728h-.727v.728h-.728v.728h-.728l-.364.363-.364.365-.363.363-.365.364-.363.364-.728.364-.364.364-.728.364-.363.364-.364.364-.364.364v.364h1.091l1.092-.364.364-.364 1.092-.364v.364l.727.364.728.364c1.13 0 2.031-.254 2.547.364l1.455.363h6.55c0-.65 1.91-.363 2.547-.363 0-.628 1.73-.542 2.183 0l.364.363.728.364.727.364.728.364.364.728.364.364.364.364.364.364.363.364.364.364.728.363.364.364.728.364.727.365 1.092.363.728.364c1.128 0 1.668-.253 2.183.364h2.183l1.092-.364v-.727l-.364-.365-.364-.364c-.628 0-.364-1.466-.364-2.183l-.364-.728-.363-.364-.365-.364-.363-.364-.364-1.455-.364-.364-.364-.364-.364-.728-.364-.364h1.456l1.092-.364c0-.651 1.91-.364 2.547-.364l1.091-.364 1.456-.363 1.091-.365 1.091-.363.728-.365c0-.628 1.466-.363 2.184-.363l.727-.364c0-.628 1.73-.542 2.184 0l.363 1.455.364.365.364.363.364.364.728.364.727.364c1.129 0 1.668-.253 2.184.364h2.183v-.364l-.728-.364-.364-.364h.728c0-.658 2.911-.364 3.638-.364l.364-.728 1.82-.363 1.091-.365c0-.65 1.911-.363 2.547-.363 0-.673 1.036-.503 1.456 0h.364l.363-.364v-.364h-.727v-1.092l-.364-.364c-1.14 0-2.396.253-2.91-.364l-.783-.018.418-.71v-.363l-.364-.364-1.091-.364h-2.184c0 .627-1.73.542-2.183 0l-1.091-.364-.778-.007.414-1.449v-.364h.364v-.728h-.364v.728h-.728v.728h-1.091l-.364.364v1.092h-.728l-.364.727-.364.364-.364.364c0 .674-1.035.503-1.455 0v-2.183h.364v-.364h-.364v.364h-.364l-.364.728-.727.364v-1.092h-.364l-.364.728-.364.728-.364.363-.364.364-.364.364-.364 1.092-.363.364-1.82.364-1.092.364c-.906.575-.743.364-2.182.364v-.728h.363v-.364h-.363v.364h-.365v.728h-.727l-.788.303.424-.303v-.728h.364v-.728h-.364v.728h-.728l-.782.346.419-.71v-1.092h.363v-.728h.364l.364-1.091h.364l.364 1.091h.363l.728-.364v.728l.364.364h-.364v.728h.364v-.728h2.183v-.728h2.184l.363-.364.364-.363v-.728h-.364l-.363.364-1.092.364v-.728h-.364l-.364.728-.364.363v.364h-1.091v-1.455h.363v-.728h.365l.727-.364.728-.364v1.092h.364l.364-.728 1.091-.364v1.092h.364l.364-1.092.364-.728h.728l.364.364h.363l.364-.364.364-.728.018-.782.71.419.364 1.091h-.364v.728h.364v-.728h.364v-.728h1.091l.364.364.364.364h-.364v.728h-.364v.728h-.364l-.364.364-.363.364v.727h.363l.364-.363.364-.364v-.728h.364v-.728h.364v-.728h.364l.364-.728v-.727h.727l.364-.728 1.092-.364v.728h.364l.363-.364.364-.728.364-.728.364-.728.364-.727.364-1.092.364-.364.363-.728c0 1.129.254 1.668-.363 2.184l-.364 1.091v2.548h-.364v.364h-.364v.363h-.364v.364h-.364v.364h.364v-.364h.364v-.364h.364v-.363h.364v-.364h.727l.364-.364.728-.364h.728l.364-.364.364-.364.363-.728.364-1.455.364-1.092.364-1.82v-.728h.728c0-1.129-.253-1.668.364-2.183v-.364l-.364-.364h1.091v2.911h-.364v.364h.364v-.364h.364l.364-.728.364-.728v1.092h.364l.364-1.092.06-.788.303.425.728.363.728.365h1.455v-4.004h1.092V130.017l-.364 1.455v.365h.728c0-.674 1.035-.503 1.455 0l.728.363h2.91l.365-.363.364-1.092.06-2.608.303.424.365.728c.627 0 .541 1.731 0 2.183v1.456H150.61l.727-.364.364-.364.364-.728.364-.727.363-1.092.783-.346-.418.71-.365 1.455-.363.728v.728h.363l.365-.364.363-.364.728-.363.364-.365.01-1.507 1.082.416.363.364.364.364.364.363.364.365.364.363.363.728.365.364.363.364.364.364.364.364.364.728.364.728.364.363.364.728.364 1.456.363.364.364.364.364 1.456.364.727v1.456h-.728v-1.456l-.364-.364-.363-.727-.728-.364-.364-.728-.364-.728-.364-.364-.728-.364-.363-.364-.365-.364-.363-.363-.364-.365-.364-.363-.728-.364h-.728c0 .642-1.375.531-1.819 0l-.728-.364-.727-.364c-1.129 0-1.668.253-2.183-.364h-1.82l-.364.364-.363.364v.728h-.728l-.364.363-.364.365v-.728h-.364l-.364.363-.364.365-.363.363-.364.364-.364.728-.364.728-.364.728-.364.728-.364.727-.782.346.419-.71.363-1.091.364-.728.364-.728.364-1.092v-1.455h-.364l-.728.364v.728h-.727v-1.82h-.364l-.364.364-.364.364-.364.364-.364.363v-.727h-.727l-.364.364-.364.363-.364.365-.364.727h-1.091l-.364.728-.364.364-.364.364-.364.728-.364.364-.363.728-.364.363v.728h-.364v.728h.364v-.728h.727l.364-.728.364-.363.364-.364.364-.728.364-.364.413-.358-.413 1.45-.364 1.091v1.092h-.364v.728h-.364v.364h.364v-.364h.364v-.728h.364l.364-.728.363-.728.364-.727.728-.364v2.183c.628 0 .364 1.466.364 2.184l.364.364h.364l.363-.728h1.092l.364-.364.364-.364.364-.364.727-.364.364-.364.364-.364.364-.728.364-.727.364-.728.363-.364.364-.364c0 1.129.254 1.668-.364 2.183v1.456h.728l.364-.364.364-.364.364-1.455.364-.728.364-.728.363-.364v2.184c.642 0 .532 1.375 0 1.82l-.363 1.09v1.093h.363l.364-.364.364-.728.364-.728.364-1.82v-2.183c0-1.14-.253-2.396.364-2.911l1.82-.364v1.092l-.365.363-.363 1.092-.365 1.456v2.183c.657 0 .365 2.578.365 3.275h.363l.364-.363.364-.728.728-.364v1.82h.728l.363-.365v1.82l.783.018-.419.71-.364.728-.728.364-.727.364-.728.363-.364.365-.363.363-.728.364-.364.364-1.092.364-.363.364-.728.364-.364.728-.364.364-.728.364v.727h-.728l-.364.728-.363.364-.364.364-.364.728-.364.728-.364.728-.364.727-.364.729-.363.363-.364 1.092-.364 1.455-.364.729-.364.364-.364 1.091-.364.728-.363.728c0 1.129.253 1.668-.364 2.183l-.364 1.456v1.82h.364l1.091-.364 1.092-.364 1.091-.364 1.092-.364.728-.364.727-.364.728-.364.728-.364.782-.346-.418.71-.364.364-.364.364-.364.364-.364.364-.364.364-.727.364v.727h-.728l-.364.364-.728.364-.727.364-.728.364-.364.364v.364c1.13 0 2.032-.254 2.547.364h3.639v1.091h.364l1.092-.363 1.455-.364.727-.364 1.456-.364.728-.364.728-.364.727-.364.364-.364.364-.364.727-.364.365-.364.727-.363.364-.364.364-.364.364-.364.728-.364 1.091-.364.728-.364.364-.364.364-.364.364-.364.727-.363v-.728h.728l.364-.364.728-.364.363-.728.364-.364.364-.364.364-.364.364-.364.364-.727.364-.364.727-.365.364-.727.364-.364.364-.364.364-.364.364-.364v-.727h.727l.364-.729v-.727h.728l.364-.728.364-.728.363-.364.364-1.092.364-.364.364-.364.364-.727c0-1.13-.253-1.669.364-2.184l.364-1.455.363-1.092.364-1.092.364-1.092c0-1.156-.252-2.76.364-3.275v-1.092c-.628 0-.364-1.466-.364-2.183l-.364-1.092-.364-1.456-.363-1.092-.364-1.091-.364-.728-.364-.728-.364-.364-.364-.728-.364-.364-.363-.363-.364-.365-.364-.727-.364-.364-.364-.728-.364-.364-.364-.364-.363-.728-.364-.364-.364-.363-.364-.364-.728-.364-.364-.364-.363-.728-.364-.364-.364-.364-.728-.364-.364-.364-.364-.364-.727-.363-.364-.365-.728-.363-.364-.364-.727-.364-.364-.364-.364-.364-.728-.364-.364-.364-.728-.364-.363-.364-.365-.364-.363-.364-.364-.363-.364-.364-.728-.364-.363-.364-.728-.364-.728-.364-.728-.364-.728-.364-.727-.364-.728-.364-1.092-.364-.727-.363-.728-.364-.364-.364c-1.14 0-2.395.253-2.91-.365l-1.456-.363-1.092-.364-.728-.364-1.455-.364-1.092-.364-.727-.364-1.456-.364-1.819-.364-1.092-.364c-1.129 0-2.03.254-2.547-.364l-1.455-.363-1.82-.364-1.455-.364-1.82-.364-1.455-.364c-1.128 0-1.667.253-2.183-.364-1.128 0-1.668.253-2.183-.364-1.39 0-4.776.452-5.458-.364-1.13 0-2.031.254-2.547-.364h-10.188l-.364.364h-.728l-.364-.364-.363-.728h-.728l-.783.346.419-.71v-1.455l-1.516-.06.424-.304v-.728l-1.819-.364-.364-.364-.728-.364-.363-.363h-.728l-.728.363-1.455.364-.728.364-.728.364-.727.364-.728.364-.364.364-.728.364-.364.364-.727.364-.364.364-1.092.363-1.82.364c0 .63-1.465.364-2.183.364l-1.091.364c0 .629-1.466.364-2.183.364l-1.092.364c0 .628-1.466.364-2.183.364l-1.455.364-1.456.364-.727.364-1.82.363-.727.364-1.82.364-.727.364-1.456.364-.728.364-1.091.364-.728.364-1.091.364-.728.364-1.456.364-.728.363-1.091.365-.728.364-.728.364-.727.363-1.092.364-.364.364-1.091.364-.364.364-1.82.364-.363.364-.364.364-.364.364-.728.364-.364.364-.727.363-.364.364-1.456.364-.364.364-.363.364-.364.364-.728.364-1.455.364-1.456.364-.364.364-.728.364-.363.728-.365.363-.363.364-.364.728v.728h.727v.728h.728l-.006.777-1.45-.413h-.363l-.728.364v.727h-1.091v-.727l-.364-1.092-.364-1.456-.364-1.456c-.642 0-.531-1.375 0-1.819 0-1.13-.253-1.668.364-2.184 0-1.13-.253-2.031.364-2.547 0-1.129-.253-1.668.364-2.183l.363-1.82.365-.728.363-.728.364-.728.364-.728.364-1.091.364-.728.363-.728.365-.728.363-.727.364-.728.364-.728.364-.364.364-.728.364-.728.364-.364.364-.727.363-.364.364-.728.364-.364.364-.364.364-.728.364-.728.364-.728.363-1.091.364-.728v-.728h-.364l-.363.364zm35.295 52.404c1.184 0 3.435-.316 4.002.364l.365.364.727.364.364.364.728.363.364.365.727.363.364.364.728.364.364.364.782.018-.418.71h-1.456l-.727.364c0 .584-6.444.562-6.914 0h-1.82v-.364H76.02v-.728h.727l.364-.364.728-.364.363-.727.365-.728v-.728h.727v-.728zm28.746-1.456h-.365l-.363.728-.364.364v-1.092h-.364l-.364.728-.364.728-.363.364h-.365v-1.82h.365v-.728h-.365v.728h-.727v-.728h.364v-.727h-.364v.727h-.364l-.364.364-.727.364v-1.82h.363l.364-1.091.018-.783.71.42.364 1.455h.363l.365-.364v.728h.363l.364-.364h.728l.364.364h.363l.728-.364v1.091h-.363v.728zm4.366-2.183h-.364l-1.143.354.415-1.082v-.728h1.092l.363-.364v1.092h-.363v.728zm20.74-4.731-.728.364-.364.364-.727.364v.727h-.728l-.364.364-.728.364v.728h.364l.728-.364v.728h.364l1.091-.364v-.728h.728l.364-.728.364-.363.364-.364.364-.728v-.728h.363v-.728h-.363v.728h-.728l-.364.364zm-45.847 2.547v.364l.364.364h.364v-1.456h.364v-1.455h-.364v1.455h-.364l-.364.728zm-14.554-9.098v.364h1.091v-.728h-.727l-.364.364zm55.307 10.19v.364h.728l.364-.364v-.364h-.728l-.364.364zm-31.656 12.009v.728h.728l-.728-.728zm-4.73-14.556h.363v-.728h-.363v.728zm15.282 0h.364v-.728h-.364v.728zm29.109-6.551h.364v-.728h-.364v.728zm-44.755 2.912v-.365h-.364v.365h.364zm27.653 6.186v-.364h-.363v.364h.363zm-9.096 3.64v-.365h-.364v.364h.364zm16.374-5.823v-.364h-.364v.364h.364zm-35.295-1.092v-.364h-.364v.364h.364zm17.83-1.456v-.364h-.365v.364h.364zm-17.102 2.911v-.363H91.3v.363h.364zM39.16 182.15c1.156 1.483 1.751 2.846 1.772 4.092l.001.068c.007 1.197-.51 2.352-1.552 3.464l-.12.126-.061.063-.063.062-.064.063-.065.062-.066.063-.068.062-.068.062-.07.062-.07.062a12.867 12.867 0 0 1-3.518 2.182c-1.289.536-2.554.827-3.796.88-.944.033-1.785-.098-2.522-.4-.74-.3-1.39-.776-1.95-1.422-.569-.654-.952-1.37-1.149-2.148-.193-.777-.21-1.629-.05-2.555.22-1.227.682-2.437 1.394-3.638a12.922 12.922 0 0 1 2.655-3.179c1.515-1.316 2.991-1.867 4.43-1.657 1.435.212 2.923 1.203 4.46 2.972l.07.082.071.083.07.082.068.082.066.082.066.081.065.081.063.081zM20.88 170.201c-1.148.486-2.3.5-3.456.033-1.154-.467-1.977-1.27-2.462-2.415-.49-1.152-.499-2.306-.032-3.462.467-1.154 1.277-1.974 2.425-2.462 1.145-.486 2.293-.497 3.447-.03 1.156.466 1.98 1.274 2.468 2.426.486 1.145.494 2.296.027 3.45-.466 1.155-1.272 1.974-2.417 2.46zm11.341 13.205a10.476 10.476 0 0 0-2.56 3.35c-.284.588-.44 1.112-.465 1.571-.03.46.073.826.305 1.093.153.175.36.3.622.375.265.078.548.096.853.058a8.868 8.868 0 0 0 2.489-.76 9.809 9.809 0 0 0 2.269-1.477c.766-.666 1.17-1.285 1.21-1.856.04-.57-.273-1.237-.934-1.998-.66-.758-1.276-1.165-1.848-1.217-.572-.052-1.221.235-1.94.861zm8.651 6.97 3.056 2.473-4.771 5.892 2.18 1.766c.288.233.545.355.77.36.23.008.431-.098.606-.313.356-.44.483-1.096.38-1.965-.099-.869-.434-1.977-.997-3.323 1.341.144 2.35.197 3.02.15.674-.044 1.104-.185 1.3-.427.152-.188.196-.387.127-.59-.067-.202-.256-.429-.563-.677l-5.266-4.265 2.833-2.052 5.144 4.164c1.228.996 1.978 1.962 2.245 2.9.27.937.057 1.837-.638 2.696-.416.514-.92.89-1.518 1.136-.595.247-1.325.371-2.185.378.286.996.37 1.922.249 2.783-.12.861-.434 1.601-.938 2.225-.44.542-.936.93-1.491 1.165a3.305 3.305 0 0 1-1.785.213c-.48-.068-1.01-.268-1.595-.607-.583-.337-1.445-.965-2.586-1.89l-4.5-3.643 6.923-8.55zm12.535 4.697 3.464 2.25-8.166 12.573-3.463-2.249 8.165-12.574zm3.566 19.33-3.548-1.886 5.402-10.16-3.697-1.965 2.437-2.653 9.356 4.975-.262 1.076-.589 2.42-.244-.13-3.453-1.836-5.402 10.16zm18.351-5.069-5.646-2.055-.798 2.193 5.152 1.875-2.093 2.833-4.214-1.534-.878 2.412 6.118 2.226-2.17 2.805-8.889-3.235 3.922-10.774.833-2.29.373-1.024 8.576 3.121-.286 3.447zm2.141-3.002 3.892 1.043-2.931 10.941 5.017 1.345-1.941 3.274-7.917-2.122 3.88-14.481zm8.79 14.163 1.287-8.124-2.984-.473 1.502-3.233 5.988.948-1.824 11.511c-.302 1.91-.976 3.362-2.026 4.367-1.05 1.004-2.633 1.71-4.75 2.122l-1.067-3.368c1.274-.307 2.194-.73 2.763-1.28.567-.544.937-1.37 1.111-2.47zm13.1 4.773-.385-10.994 3.99-.14.129 3.7c.983-.534 1.74-1.086 2.27-1.654.53-.57.785-1.1.767-1.593-.01-.336-.11-.596-.298-.786l-.02-.02-.01-.01-.011-.01-.011-.01-.011-.01-.011-.008-.012-.01c-.246-.19-.6-.279-1.068-.262l-6.426.224.792-3.408 6.267-.219c1.486-.051 2.658.279 3.516.991.858.708 1.312 1.722 1.357 3.03.052 1.48-.51 2.864-1.683 4.15-1.173 1.286-2.93 2.444-5.273 3.467l.12 3.433-3.99.139zm22.62-16.608 1.828 14.88-4.685.575c-1.4.172-2.419.253-3.058.24-.637-.01-1.2-.09-1.691-.244-1-.309-1.807-.91-2.42-1.805-.616-.9-1.009-2.054-1.182-3.463-.154-1.254-.105-2.623.148-4.104.253-1.482.722-3.112 1.404-4.894l4.156-.51c-.723 2.113-1.213 3.847-1.474 5.205-.262 1.36-.332 2.527-.213 3.5.133 1.085.458 1.846.974 2.286.513.443 1.266.601 2.26.48l1.366-.169-1.411-11.486 3.999-.491zm9.534.704-3.81 1.02c-.262.07-.44.16-.537.267-.096.11-.122.25-.076.418a.627.627 0 0 0 .16.274c.08.088.204.187.368.293l4.118 2.688c.63.416 1.131.851 1.5 1.303.37.457.628.95.77 1.484.142.528.164 1.049.06 1.562-.1.515-.312.973-.634 1.37-.286.356-.678.663-1.176.916-.498.252-1.29.524-2.378.815l-3.34.895-1.85-3.082 4.218-1.13c.221-.06.38-.15.475-.27.093-.12.117-.27.069-.448a.628.628 0 0 0-.152-.242c-.08-.09-.181-.178-.301-.262l-4.497-2.934a4.657 4.657 0 0 1-1.178-1.116 4.089 4.089 0 0 1-.679-1.385 3.793 3.793 0 0 1-.128-1.17c.018-.39.1-.76.242-1.119.22-.544.584-.987 1.084-1.33.503-.341 1.293-.657 2.375-.948l3.53-.945 1.767 3.076zm-4.41-3.331-2.444.654-2.6-2.186 1.548-.415 1.918.907 1.192-1.74 1.563-.42-1.178 3.2zm3.623.342 3.728-1.582 2.586 6.092.613-7.45 4.156-1.765-.815 7.514 7.21 6.059-4.32 1.834-6.748-5.966 3.176 7.482-3.727 1.582-5.859-13.8zm18.548-8.634 2.088-1.205 2.477 2.47-2.642 1.526c-1.267.731-2.135 1.548-2.609 2.448-.472.9-.599 1.976-.376 3.23l3.31-1.911-1.405-2.435 3.506-2.025 5.501 9.527-3.507 2.025-2.366-4.1-3.662 2.114a9.197 9.197 0 0 0 1.59 1.863 10.678 10.678 0 0 0 2.111 1.467l-1.719 3.421c-1.31-.664-2.451-1.434-3.42-2.308a12.177 12.177 0 0 1-2.401-2.954 11.306 11.306 0 0 1-1.396-3.846c-.214-1.329-.161-2.586.158-3.774a7.628 7.628 0 0 1 1.618-3.029c.784-.913 1.833-1.747 3.144-2.504zm6.697.82 3.175-2.48 6.773 8.668-3.175 2.48-6.773-8.668zm9.735-1.805a34.549 34.549 0 0 0 3.75 1.431c1.207.38 2.38.653 3.515.826l-1.057 3.845a30.415 30.415 0 0 1-5.038-1.38c-1.698-.618-3.452-1.411-5.268-2.371.467-1.353.744-2.43.825-3.233.082-.804-.017-1.386-.297-1.745-.177-.226-.396-.34-.652-.346-.258-.003-.535.11-.832.342l-5.612 4.384-1.361-3.223 5.534-4.323c1.182-.923 2.306-1.38 3.374-1.366 1.07.017 1.97.492 2.71 1.438.574.736.894 1.577.96 2.523.065.941-.119 2.01-.551 3.198zm-2.541-9.46 2.97-2.868 10.416 10.785-2.972 2.87-10.414-10.786zm20.747-.167c-.837.965-1.696 1.701-2.574 2.213-.88.507-1.84.826-2.882.951a8.982 8.982 0 0 1-3.859-.356 9.715 9.715 0 0 1-3.465-1.954c-.76-.662-1.331-1.372-1.709-2.13l-.018-.035-.017-.035-.017-.036-.017-.035-.016-.036-.016-.036-.016-.035-.016-.036a5.004 5.004 0 0 1-.42-2.076c.018-.694.19-1.38.523-2.06.33-.684.889-1.475 1.674-2.379l1.53-1.76 3.223 1.519-1.833 2.109-.035.04-.034.04-.034.04-.034.04-.033.04-.032.04-.031.04-.032.04-.03.038-.03.04-.03.039-.029.038-.028.039-.028.038-.027.038-.027.039-.026.038-.026.038-.025.037-.025.038-.024.037-.046.074-.023.037-.021.037c-.223.378-.357.73-.404 1.06l-.008.063-.003.03-.002.032-.002.031-.002.03v.032l-.001.03c0 .647.367 1.294 1.108 1.938 1.267 1.101 2.617 1.573 4.045 1.415 1.43-.16 2.745-.932 3.95-2.318l.202-.232 1.881 2.984-.129.147zm-13.763-12.682-.074 4.33-1.154 1.328-.813-3.31 2.041-2.348zm19.466-12.605c1.157.467 1.98 1.273 2.467 2.42.487 1.146.499 2.297.034 3.45-.47 1.16-1.279 1.982-2.426 2.47-1.146.485-2.298.493-3.454.025-1.154-.466-1.974-1.269-2.46-2.416-.488-1.147-.498-2.3-.03-3.46.466-1.154 1.274-1.972 2.42-2.459 1.148-.488 2.296-.496 3.45-.03zM7.794 99.17l-3.445 6.477L0 101.742l7.432-13.979 12.851 16.493 3.873-7.284 4.267 4.156-7.763 14.6L7.794 99.17zM28.98 69.356l-6.521 7.503 2.913 2.533 5.95-6.846 3.136 4.913-4.868 5.6 3.203 2.784 7.068-8.13 3.048 5.015-10.27 11.814-18.723-16.276 9.908-11.396 5.156 2.486zm4.893-11.228 5.46-3.823 10.752 15.354 7.041-4.93 2.085 5.942-11.109 7.779-14.229-20.322zm39.574-14.486-9.28 3.562 1.383 3.604 8.469-3.251.461 5.81-6.926 2.659 1.52 3.963 10.057-3.86.337 5.858-14.614 5.61-8.89-23.16 14.098-5.412 3.385 4.617zm18.274.537 1.086 15.52-6.65.465-1.73-24.748 6.343-.443 7.668 8.489-.629-8.982 6.557-.458 1.73 24.747-6.556.459-.485-6.944-7.334-8.105zm25.41-8.906 6.73 1.187-4.307 24.43-6.73-1.186 4.308-24.431zm34.688 10.38 5.86 3.248-5.31 9.578 10.34-6.79 6.534 3.622-10.626 6.592-.557 15.573-6.793-3.765.906-14.876-6.521 11.763-5.86-3.248 12.027-21.698zm39.67 31.9-17.845 17.234-5.425-5.617c-1.62-1.678-2.742-2.945-3.362-3.803-.62-.852-1.075-1.676-1.36-2.478-.588-1.628-.6-3.293-.024-4.995.574-1.71 1.707-3.379 3.397-5.01 1.505-1.454 3.363-2.751 5.572-3.891 2.21-1.142 4.83-2.145 7.864-3.02l4.813 4.984c-3.512 1.15-6.293 2.23-8.346 3.235-2.057 1.01-3.67 2.078-4.838 3.207-1.3 1.254-1.982 2.442-2.05 3.562-.075 1.118.465 2.272 1.616 3.464l1.582 1.638 13.776-13.304 4.63 4.795zm-9.336 32.912-3.123-5.871 16.811-8.939-3.253-6.117 5.798-1.383 8.231 15.48-4.402 4.008-3.252-6.116-16.81 8.938zM39.96 24.97c-.022.866-.195 1.795-.516 2.784l-.024.073-.075.219-.025.073-.027.074-.027.074-.027.074-.028.074-.029.075-.029.074-.03.075-.03.075-.03.076-.032.075-.031.076-.033.076-.033.076-.033.076-.034.077c1.77.942 3.49 1.74 5.156 2.39a33.38 33.38 0 0 0 4.884 1.515l-1.871 5.328a43.148 43.148 0 0 1-6.984-2.447c-2.336-1.04-4.736-2.334-7.207-3.871.793-1.864 1.29-3.357 1.484-4.485.196-1.128.113-1.96-.247-2.494-.227-.337-.524-.521-.886-.555-.366-.029-.767.103-1.21.402l-8.361 5.64-1.605-4.688 8.245-5.562c1.761-1.187 3.395-1.72 4.901-1.596 1.51.128 2.738.89 3.687 2.3l.035.05.034.052.033.052.033.052.032.052.032.053.03.053.031.052.03.053.03.053.029.054.028.053.028.054.027.054.027.054.027.054.025.054.026.055.024.055.024.055.024.055.023.055.022.055.022.056.022.056.02.056.02.056h.001l.02.056.019.057.018.057.019.057.017.057.017.057.017.058.015.057.016.058.015.058.014.058.014.059.013.058.013.059.012.059.012.059.01.06h.001l.01.058.01.06.01.06.009.06.008.06.008.06.008.06.006.061.006.061.006.061.005.062.005.061.004.061.003.062.003.062.003.062.002.062.001.063.001.062v.189h-.001l-.001.063zm17.673-12.547-7.89 3.188 1.238 3.062 7.199-2.908.481 4.965-5.889 2.378 1.362 3.37 8.549-3.454.375 5.008-12.422 5.02-7.954-19.688 11.985-4.841 2.966 3.9zm16.77-4.563-5.42 1.35c-.372.093-.625.217-.766.364-.139.153-.179.35-.119.59a.896.896 0 0 0 .221.393c.11.126.285.27.514.424l5.763 3.907c.884.606 1.581 1.234 2.093 1.884a5.64 5.64 0 0 1 1.055 2.119c.187.75.204 1.489.045 2.212a4.335 4.335 0 0 1-.933 1.926c-.412.496-.974.922-1.687 1.267-.71.345-1.84.71-3.387 1.096l-4.754 1.185-2.54-4.41 5.998-1.496c.316-.078.544-.205.68-.372.136-.166.172-.377.108-.632-.025-.101-.092-.213-.21-.346-.11-.13-.25-.258-.419-.377l-6.293-4.267a6.629 6.629 0 0 1-1.64-1.608 5.757 5.757 0 0 1-.928-1.979 5.343 5.343 0 0 1-.153-1.66c.036-.55.16-1.074.37-1.578a4.145 4.145 0 0 1 1.568-1.858c.72-.47 1.848-.898 3.387-1.282l5.021-1.252 2.427 4.4zM91.17 21.913l-5.662.595L83.805 6.3l-5.898.62.762-5.044L93.594.307l1.77 4.779-5.898.62 1.704 16.207zm12.717-13.426c-.035.997.03 1.997.202 2.997.17 1 .438 1.965.797 2.89.333.863.725 1.53 1.177 2 .447.474.926.72 1.426.738.33.01.657-.083.989-.281a2.92 2.92 0 0 0 .884-.829c.68-.976 1.215-2.078 1.617-3.312.396-1.233.617-2.492.661-3.775.05-1.437-.2-2.452-.753-3.046-.553-.592-1.545-.914-2.972-.963-1.421-.05-2.438.196-3.045.739-.607.542-.936 1.491-.983 2.842zm4.2-8.473c3.311.116 5.716.869 7.22 2.255 1.505 1.385 2.21 3.506 2.11 6.355a18.23 18.23 0 0 1-1.136 5.752c-.692 1.852-1.613 3.445-2.757 4.781-.876 1.01-1.825 1.756-2.85 2.227-1.024.476-2.144.69-3.357.647-1.225-.043-2.338-.34-3.332-.885-.994-.55-1.892-1.356-2.696-2.416-1.059-1.413-1.866-3.06-2.422-4.958a18.32 18.32 0 0 1-.728-5.82c.1-2.84.955-4.902 2.563-6.189 1.606-1.282 4.068-1.865 7.384-1.749zm14.93 7.156 5.582 1.186-3.239 15.24-5.58-1.187 3.238-15.239zm10.82 8.919a48.89 48.89 0 0 0 1.862 5.37 33.574 33.574 0 0 0 2.305 4.565l-5.133 2.355a43.028 43.028 0 0 1-3.09-6.724c-.878-2.402-1.612-5.029-2.223-7.872 1.892-.726 3.31-1.405 4.257-2.048.948-.643 1.488-1.28 1.622-1.911.084-.397.01-.74-.217-1.023-.232-.283-.606-.48-1.129-.591l-9.863-2.096 2.255-4.412 9.728 2.068c2.079.441 3.595 1.247 4.554 2.417.956 1.175 1.26 2.587.907 4.25a6.405 6.405 0 0 1-1.862 3.338c-.963.928-2.29 1.701-3.972 2.314zm24.87-4.3 3.143 1.335-.682 4.907-3.978-1.689c-1.907-.81-3.57-1.095-4.992-.863-1.42.232-2.746 1.007-3.975 2.328l4.984 2.115 1.556-3.666 5.278 2.241-6.088 14.34-5.278-2.24 2.62-6.17-5.512-2.34a13.124 13.124 0 0 0-.752 3.384c-.1 1.166-.055 2.379.14 3.64l-5.334.972c-.364-2.049-.467-3.995-.303-5.835.163-1.84.593-3.586 1.294-5.234.79-1.864 1.845-3.48 3.16-4.857 1.32-1.374 2.787-2.386 4.402-3.038 1.502-.608 3.104-.862 4.805-.751 1.702.11 3.54.584 5.512 1.42zm10.829 14.633-7.253 11.169-4.785-3.108 11.564-17.807 4.564 2.965.869 9.753 4.197-6.463 4.717 3.063L171.845 43.8l-4.717-3.063 3.246-4.998-.838-9.318z" style="fill:#fff"/></svg>